<svg width="500" height="756" viewBox="0 0 500 756" fill="none" xmlns="http://www.w3.org/2000/svg">
<path d="M238.064 1.49518C191.77 8.31744 150.739 28.5891 118.382 60.7512C90.7027 88.2351 62.4391 135.016 47.0402 178.874C34.0779 215.519 25.7937 266.979 24.2343 319.705C23.747 336.566 23.6496 337.346 21.6029 338.71C12.1492 344.948 5.81423 354.304 2.20817 367.461C-1.39788 380.716 -0.520723 414.437 4.35232 442.798C10.7847 481.198 28.0353 500.495 47.9174 491.723L52.498 489.677L53.9599 491.918C54.7396 493.088 58.833 498.935 63.0238 504.881C80.8592 530.025 81.3465 530.805 82.8084 541.234C84.5627 554.391 87.6814 603.803 87.8763 622.321C87.8763 623.685 87.8763 636.5 90.5518 655.5C173.545 792.631 342.496 785.498 412.552 658C416.552 644 417.197 603.803 419.438 568.717C421.972 528.953 422.85 522.911 426.456 516.089C428.015 513.165 433.18 505.465 437.956 499.033C442.732 492.601 446.728 487.045 446.728 486.558C446.728 486.168 453.745 485.876 462.224 485.876L472.052 484.544L480.839 482.172C490.487 470.574 497.115 444.163 499.162 408.784C500.818 381.3 498.967 366.486 492.339 354.109C489.61 348.846 483.373 342.121 478.11 338.71C476.063 337.346 475.966 336.566 475.478 319.705C473.919 266.979 465.635 215.519 452.673 178.874C437.274 135.016 409.01 88.2351 381.331 60.7512C349.656 29.3687 308.43 8.60983 264.476 1.98248C258.92 1.10533 253.462 0.325708 252.39 0.0333252C251.221 -0.161597 244.886 0.520569 238.064 1.49518ZM263.306 16.1141C292.447 20.4999 317.884 29.7586 340.008 44.1828C371 64.3572 398.192 96.7143 412.616 130.533C419.146 145.932 419.049 146.419 410.082 138.038C394.683 123.613 381.429 114.939 365.738 109.287C354.335 105.193 349.364 104.024 337.279 102.952C321.198 101.392 306.384 103.731 297.125 109.092C284.358 116.596 270.128 138.135 264.573 158.407C261.942 167.861 262.039 172.344 264.865 178.581C268.082 185.306 270.031 186.281 276.463 184.137C287.769 180.531 294.396 175.268 304.142 162.305C312.037 151.78 329.092 140.474 342.932 136.381C350.436 134.237 363.301 134.237 371.683 136.478C395.366 142.716 414.468 164.157 414.858 184.819C414.955 192.128 412.129 199.341 408.036 201.972C405.404 203.726 405.794 204.019 399.556 195.247C389.615 180.92 376.361 169.42 365.055 165.229C349.851 159.479 330.944 161.428 317.884 170.102C313.498 173.026 305.019 180.141 298.295 186.378C294.299 190.179 292.739 194.175 294.688 195.442C296.443 196.514 304.629 197.976 319.541 199.828C332.991 201.582 346.245 204.214 352.678 206.455C359.305 208.794 397.412 226.63 414.078 235.109C431.329 243.88 432.693 244.855 436.884 251.092C443.122 260.351 445.071 266.589 445.168 277.31C445.266 284.912 444.876 287.348 443.121 291.149C440.1 297.874 434.935 305.281 428.113 312.98C415.638 327.015 406.671 342.024 401.603 357.715C400.141 362.003 397.412 372.919 395.561 382.08C386.594 425.158 378.7 443.09 360.572 461.023C345.466 475.935 329.385 483.829 306.384 487.435C291.375 489.774 208.338 489.774 193.329 487.435C170.328 483.829 154.247 475.935 139.141 461.023C121.013 443.09 113.119 425.158 104.152 382.08C102.301 372.919 99.5717 362.003 98.1097 357.715C93.0418 342.024 84.0754 327.015 71.6004 312.98C64.7781 305.281 59.6127 297.874 56.5914 291.149C54.8371 287.348 54.4472 284.912 54.5447 277.31C54.6422 266.589 56.5914 260.351 62.8289 251.092C67.0197 244.855 68.3841 243.88 85.6347 235.109C102.301 226.63 140.408 208.794 147.035 206.455C153.468 204.214 166.722 201.582 180.172 199.828C195.083 197.976 203.27 196.514 205.024 195.442C206.974 194.175 205.414 190.179 201.418 186.378C194.694 180.141 186.214 173.026 181.829 170.102C168.769 161.428 149.861 159.479 134.658 165.229C123.352 169.42 110.097 180.92 100.156 195.247C93.9189 204.019 94.3088 203.726 91.6773 201.972C87.584 199.341 84.7576 192.128 84.8551 184.819C85.2449 164.157 104.347 142.716 128.03 136.478C136.412 134.237 149.277 134.237 156.781 136.381C170.621 140.474 187.676 151.78 195.571 162.305C205.317 175.268 211.944 180.531 223.25 184.137C229.682 186.281 231.631 185.306 234.847 178.581C237.674 172.344 237.771 167.861 235.14 158.407C229.585 138.135 215.355 116.596 202.588 109.092C193.329 103.731 178.515 101.392 162.434 102.952C150.349 104.024 145.378 105.193 133.975 109.287C118.284 114.939 105.029 123.613 89.6306 138.038C80.6642 146.419 80.5668 145.932 87.0966 130.533C101.521 96.7143 128.712 64.3572 159.705 44.1828C184.07 28.3941 213.893 18.1609 245.958 14.8472C247.81 14.6523 249.564 14.4574 249.856 14.3599C250.149 14.2625 256.191 15.0421 263.306 16.1141Z" fill="#151515"/>
<path d="M229.097 219.905C227.051 220.977 222.86 224.486 219.644 227.702C203.66 244.173 189.236 274.581 189.041 292.513C188.943 299.043 189.236 300.895 190.795 302.552C194.986 307.133 199.859 306.255 223.542 296.217L234.75 291.441H249.856H264.963L276.171 296.217C299.854 306.255 304.727 307.133 308.918 302.552C310.477 300.895 310.769 299.043 310.672 292.513C310.477 274.581 296.053 244.173 280.069 227.702C270.518 217.956 263.598 215.714 255.119 219.808L251.026 221.854L245.373 219.808C238.356 217.371 233.873 217.371 229.097 219.905Z" fill="#151515"/>
<path d="M218.766 320.192C210.97 322.531 202.393 328.184 190.113 339.197C178.612 349.333 152.785 375.063 151.421 377.597C150.154 380.131 153.955 385.589 157.756 386.661C161.459 387.635 169.646 386.173 174.812 383.542C176.956 382.47 183.388 378.474 189.236 374.673C202.783 365.804 209.8 362.49 221.398 359.469C229.974 357.325 232.703 357.033 249.856 357.033C267.01 357.033 269.738 357.325 278.315 359.469C289.913 362.49 296.93 365.804 310.477 374.673C316.325 378.474 322.757 382.47 324.901 383.542C330.067 386.173 338.253 387.635 341.957 386.661C345.758 385.589 349.559 380.131 348.292 377.597C346.928 375.063 321.1 349.333 309.6 339.197C304.337 334.422 297.222 328.672 293.714 326.332C282.701 319.12 268.082 316.391 256.094 319.51C252.195 320.485 250.051 320.582 244.983 319.608C235.92 317.853 225.979 318.146 218.766 320.192Z" fill="#151515"/>
<path d="M205.999 391.534C196.058 392.606 193.037 393.775 189.138 398.063C182.608 405.276 183.875 412.488 192.549 418.335C199.761 423.111 203.952 423.598 228.415 422.331C244.106 421.552 255.607 421.552 271.298 422.331C295.761 423.598 299.951 423.111 307.163 418.335C315.837 412.488 317.104 405.276 310.575 398.063C306.676 393.775 303.85 392.606 293.227 391.436C283.48 390.364 215.843 390.364 205.999 391.534Z" fill="#151515"/>
</svg>
